<svg width="648" height="160" viewBox="0 0 648 160" fill="none" xmlns="http://www.w3.org/2000/svg">
<g clip-path="url(#clip0_102_3299)">
<path d="M280.44 102.65C282.33 104.71 283.53 107.81 283.53 110.9C283.53 117.61 277.86 123.11 270.98 123.11C267.54 123.11 264.1 121.39 261.87 118.98L223.87 74.79L207.19 92.16V109.01C207.19 116.75 200.83 123.11 193.09 123.11C185.35 123.11 178.99 116.92 178.99 109.18V14.1C178.99 6.36 185.35 0 193.09 0C200.83 0 207.19 6.36 207.19 14.1V54.5L255.68 4.81C257.92 2.23 261.7 0 265.82 0C272.7 0 278.54 5.5 278.54 12.55C278.54 15.64 276.99 18.74 275.62 20.46L241.4 56.39L280.43 102.64L280.44 102.65Z" fill="#027F8B"/>
<path d="M355.27 3.8501C384.62 3.8501 413.46 28.1901 413.46 63.3801C413.46 98.5701 384.61 122.91 355.27 122.91C325.93 122.91 297.08 98.5701 297.08 63.3801C297.08 28.1901 325.92 3.8501 355.27 3.8501ZM355.27 29.8601C339.1 29.8601 325.76 43.3701 325.76 63.3701C325.76 83.3701 339.1 96.7201 355.27 96.7201C371.44 96.7201 384.62 83.3801 384.62 63.3701C384.62 43.3601 371.78 29.8601 355.27 29.8601Z" fill="#027F8B"/>
<path d="M516.48 4.51001C524.48 4.51001 530.65 11.01 530.65 18.52V109.39C530.65 118.23 524.98 122.9 517.65 122.9C511.65 122.9 506.81 119.57 503.47 114.9L459.78 54.54V108.9C459.78 116.4 453.61 122.91 445.94 122.91C438.27 122.91 431.77 116.41 431.77 108.9V17.85C431.77 9.18001 437.44 4.51001 444.94 4.51001C450.78 4.51001 455.61 7.68001 458.95 12.51L502.64 72.7V18.52C502.64 11.02 508.81 4.51001 516.48 4.51001Z" fill="#027F8B"/>
<path d="M633.02 4.51001C640.52 4.51001 646.36 10.51 646.36 17.85V80.54C646.36 107.22 624.68 122.89 599.01 122.89C573.34 122.89 551.49 107.22 551.49 80.54V17.85C551.49 10.51 557.33 4.51001 564.83 4.51001C572.33 4.51001 578.84 10.51 578.84 17.85V80.38C578.84 95.39 589.01 100.22 599.02 100.22C609.03 100.22 619.03 95.38 619.03 80.38V17.85C619.03 10.51 625.37 4.51001 633.04 4.51001H633.02Z" fill="#027F8B"/>
<path d="M190.33 137.53C190.72 137.53 191.09 137.87 191.09 138.26C191.09 138.7 190.72 139.02 190.33 139.02H185.89V153.82C185.89 154.28 185.52 154.7 185.06 154.7C184.57 154.7 184.21 154.29 184.21 153.82V139.02H179.75C179.36 139.02 179.02 138.7 179.02 138.26C179.02 137.87 179.36 137.53 179.75 137.53H190.33Z" fill="#027F8B"/>
<path d="M200.85 141.79C201.48 141.79 201.85 142.13 201.85 142.59C201.85 143.08 201.44 143.4 200.73 143.4C198.32 143.4 196.66 145.33 196.39 147.01V153.86C196.39 154.32 196.02 154.71 195.56 154.71C195.1 154.71 194.73 154.32 194.73 153.86V142.69C194.73 142.23 195.1 141.84 195.56 141.84C196.02 141.84 196.39 142.23 196.39 142.69V144.89C196.54 144.09 198.15 141.79 200.85 141.79Z" fill="#027F8B"/>
<path d="M212.01 154.79C209.74 154.79 207.21 153.47 207.21 149.45V142.72C207.21 142.28 207.58 141.87 208.04 141.87C208.5 141.87 208.87 142.28 208.87 142.72V149.45C208.87 152.28 210.6 153.3 212.41 153.3C215 153.3 216.41 151.18 216.68 149.57V142.72C216.68 142.28 217.05 141.87 217.51 141.87C217.97 141.87 218.34 142.28 218.34 142.72V153.89C218.34 154.35 217.97 154.74 217.51 154.74C217.05 154.74 216.68 154.35 216.68 153.89V151.69C216.53 152.49 215 154.79 212.02 154.79H212.01Z" fill="#027F8B"/>
<path d="M228.48 141.77C230.36 141.77 231.8 142.57 232.55 143.82C232.7 144.06 232.77 144.26 232.77 144.48C232.77 144.89 232.45 145.16 232.06 145.16C231.74 145.16 231.52 144.99 231.23 144.55C230.74 143.82 229.86 143.18 228.45 143.18C226.82 143.18 225.84 144.01 225.84 145.2C225.84 146.13 226.47 146.83 228.01 147.22L229.57 147.63C231.84 148.19 233.28 149.12 233.28 151.02C233.28 153.41 230.99 154.7 228.45 154.7C226.43 154.7 224.67 153.8 224.11 152.5C224.01 152.3 223.82 152.04 223.82 151.67C223.82 151.23 224.09 150.91 224.5 150.91C224.89 150.91 225.09 151.13 225.26 151.5C225.77 152.72 227.04 153.23 228.45 153.23C230.16 153.23 231.64 152.55 231.64 151.11C231.64 149.96 230.74 149.43 229.42 149.09L227.47 148.58C225.2 147.99 224.2 146.75 224.2 145.21C224.2 143.16 226.03 141.75 228.47 141.75L228.48 141.77Z" fill="#027F8B"/>
<path d="M243.07 153.11C243.53 152.96 243.9 153.26 243.9 153.67C243.9 154.47 242.68 154.72 241.75 154.72C240.58 154.72 239.46 154.28 239.46 152.31V143.33H238.27C237.86 143.33 237.56 143.06 237.56 142.62C237.56 142.18 237.85 141.91 238.27 141.91H239.46V139.69C239.46 139.23 239.83 138.86 240.29 138.86C240.75 138.86 241.12 139.23 241.12 139.69V141.91H243.17C243.58 141.91 243.9 142.18 243.9 142.62C243.9 143.06 243.58 143.33 243.17 143.33H241.12V152.21C241.12 152.99 241.46 153.28 242.1 153.28C242.49 153.28 242.81 153.18 243.08 153.11H243.07Z" fill="#027F8B"/>
<path d="M260.08 149.09C259.3 149.09 258.67 148.46 258.67 147.68C258.67 146.9 259.3 146.29 260.08 146.29C260.86 146.29 261.49 146.92 261.49 147.68C261.49 148.44 260.86 149.09 260.08 149.09Z" fill="#027F8B"/>
<path d="M287.57 137.53C287.96 137.53 288.33 137.87 288.33 138.26C288.33 138.7 287.96 139.02 287.57 139.02H283.13V153.82C283.13 154.28 282.76 154.7 282.3 154.7C281.81 154.7 281.45 154.29 281.45 153.82V139.02H276.99C276.6 139.02 276.26 138.7 276.26 138.26C276.26 137.87 276.6 137.53 276.99 137.53H287.57Z" fill="#027F8B"/>
<path d="M298.09 141.79C298.72 141.79 299.09 142.13 299.09 142.59C299.09 143.08 298.68 143.4 297.97 143.4C295.56 143.4 293.9 145.33 293.63 147.01V153.86C293.63 154.32 293.26 154.71 292.8 154.71C292.34 154.71 291.97 154.32 291.97 153.86V142.69C291.97 142.23 292.34 141.84 292.8 141.84C293.26 141.84 293.63 142.23 293.63 142.69V144.89C293.78 144.09 295.39 141.79 298.09 141.79Z" fill="#027F8B"/>
<path d="M309.28 141.77C311.16 141.77 312.99 142.7 313.82 144.48V142.7C313.82 142.24 314.21 141.85 314.65 141.85C315.14 141.85 315.5 142.24 315.5 142.7V153.89C315.5 154.33 315.11 154.74 314.65 154.74C314.21 154.74 313.82 154.33 313.82 153.89V151.84C313.11 153.6 311.33 154.77 309.28 154.77C306.55 154.77 303.23 152.65 303.23 148.26C303.23 143.87 306.55 141.77 309.28 141.77ZM309.45 153.31C311.52 153.31 313.91 151.7 313.91 148.26C313.91 144.82 311.52 143.24 309.45 143.24C307.38 143.24 304.89 144.85 304.89 148.26C304.89 151.67 307.38 153.31 309.45 153.31Z" fill="#027F8B"/>
<path d="M327.9 141.79C330.17 141.79 332.7 143.11 332.7 147.13V153.86C332.7 154.3 332.33 154.71 331.87 154.71C331.41 154.71 331.04 154.3 331.04 153.86V147.13C331.04 144.3 329.31 143.28 327.5 143.28C324.91 143.28 323.5 145.4 323.23 147.01V153.86C323.23 154.3 322.86 154.71 322.4 154.71C321.94 154.71 321.57 154.3 321.57 153.86V142.69C321.57 142.23 321.94 141.84 322.4 141.84C322.86 141.84 323.23 142.23 323.23 142.69V144.89C323.38 144.09 324.91 141.79 327.89 141.79H327.9Z" fill="#027F8B"/>
<path d="M342.86 141.77C344.74 141.77 346.18 142.57 346.93 143.82C347.08 144.06 347.15 144.26 347.15 144.48C347.15 144.89 346.83 145.16 346.44 145.16C346.12 145.16 345.9 144.99 345.61 144.55C345.12 143.82 344.24 143.18 342.83 143.18C341.2 143.18 340.22 144.01 340.22 145.2C340.22 146.13 340.85 146.83 342.39 147.22L343.95 147.63C346.22 148.19 347.66 149.12 347.66 151.02C347.66 153.41 345.37 154.7 342.83 154.7C340.81 154.7 339.05 153.8 338.49 152.5C338.39 152.3 338.2 152.04 338.2 151.67C338.2 151.23 338.47 150.91 338.88 150.91C339.27 150.91 339.47 151.13 339.64 151.5C340.15 152.72 341.42 153.23 342.83 153.23C344.54 153.23 346.03 152.55 346.03 151.11C346.03 149.96 345.13 149.43 343.81 149.09L341.86 148.58C339.59 147.99 338.59 146.75 338.59 145.21C338.59 143.16 340.42 141.75 342.86 141.75V141.77Z" fill="#027F8B"/>
<path d="M359.37 141.77C362.1 141.77 365.42 143.92 365.42 148.26C365.42 152.6 362.1 154.77 359.37 154.77C357.32 154.77 355.54 153.6 354.83 151.84V153.89C354.83 153.96 354.83 154.01 354.81 154.09V158.5C354.81 158.94 354.44 159.33 353.98 159.33C353.52 159.33 353.15 158.94 353.15 158.5V142.7C353.15 142.24 353.52 141.85 354 141.85C354.44 141.85 354.83 142.24 354.83 142.7V144.48C355.66 142.7 357.49 141.77 359.37 141.77ZM359.2 153.31C361.27 153.31 363.76 151.7 363.76 148.26C363.76 144.82 361.27 143.24 359.2 143.24C357.13 143.24 354.74 144.75 354.74 148.26C354.74 151.77 357.13 153.31 359.2 153.31Z" fill="#027F8B"/>
<path d="M376.24 141.77C378.11 141.77 379.95 142.7 380.77 144.48V142.7C380.77 142.24 381.16 141.85 381.6 141.85C382.09 141.85 382.45 142.24 382.45 142.7V153.89C382.45 154.33 382.06 154.74 381.6 154.74C381.16 154.74 380.77 154.33 380.77 153.89V151.84C380.06 153.6 378.28 154.77 376.24 154.77C373.51 154.77 370.19 152.65 370.19 148.26C370.19 143.87 373.5 141.77 376.24 141.77ZM376.41 153.31C378.48 153.31 380.88 151.7 380.88 148.26C380.88 144.82 378.49 143.24 376.41 143.24C374.33 143.24 371.85 144.85 371.85 148.26C371.85 151.67 374.34 153.31 376.41 153.31Z" fill="#027F8B"/>
<path d="M394.67 141.79C395.31 141.79 395.67 142.13 395.67 142.59C395.67 143.08 395.26 143.4 394.55 143.4C392.14 143.4 390.48 145.33 390.21 147.01V153.86C390.21 154.32 389.84 154.71 389.38 154.71C388.92 154.71 388.55 154.32 388.55 153.86V142.69C388.55 142.23 388.91 141.84 389.38 141.84C389.85 141.84 390.21 142.23 390.21 142.69V144.89C390.35 144.09 391.96 141.79 394.67 141.79Z" fill="#027F8B"/>
<path d="M406 141.77C408.78 141.77 412.1 143.94 412.1 147.96C412.1 148.59 411.71 148.91 411.02 148.91H401.51C401.71 151.91 404.02 153.3 406.24 153.3C407.41 153.3 408.49 152.93 409.31 152.25C409.63 152.01 409.82 151.88 410.04 151.88C410.46 151.88 410.7 152.17 410.7 152.54C410.7 152.76 410.6 152.98 410.24 153.32C409.22 154.25 407.73 154.71 406.19 154.71C403.12 154.71 399.8 152.64 399.8 148.25C399.8 143.86 403.21 141.76 405.99 141.76L406 141.77ZM406 143.23C404.05 143.23 401.73 144.6 401.51 147.57H410.48C410.28 144.59 407.97 143.23 405.99 143.23H406Z" fill="#027F8B"/>
<path d="M424.02 141.79C426.29 141.79 428.83 143.11 428.83 147.13V153.86C428.83 154.3 428.46 154.71 428 154.71C427.54 154.71 427.17 154.3 427.17 153.86V147.13C427.17 144.3 425.44 143.28 423.63 143.28C421.05 143.28 419.63 145.4 419.36 147.01V153.86C419.36 154.3 418.99 154.71 418.53 154.71C418.07 154.71 417.7 154.3 417.7 153.86V142.69C417.7 142.23 418.06 141.84 418.53 141.84C419 141.84 419.36 142.23 419.36 142.69V144.89C419.5 144.09 421.04 141.79 424.02 141.79Z" fill="#027F8B"/>
<path d="M444.88 151.21C445.27 151.21 445.61 151.48 445.61 151.89C445.61 152.18 445.42 152.38 445.25 152.6C444.17 154.01 442.54 154.72 440.74 154.72C437.89 154.72 434.45 152.57 434.45 148.26C434.45 143.95 437.89 141.77 440.74 141.77C442.55 141.77 444.18 142.48 445.25 143.89C445.42 144.11 445.61 144.3 445.61 144.6C445.61 145.01 445.27 145.28 444.88 145.28C444.59 145.28 444.32 145.11 444.12 144.84C443.36 143.77 442.03 143.23 440.8 143.23C438.58 143.23 436.09 144.86 436.09 148.25C436.09 151.64 438.58 153.25 440.8 153.25C442.02 153.25 443.36 152.71 444.12 151.64C444.32 151.37 444.58 151.2 444.88 151.2V151.21Z" fill="#027F8B"/>
<path d="M460.51 141.84C460.93 141.84 461.29 142.21 461.29 142.62C461.29 142.77 461.24 142.86 461.19 142.96L454.41 158.81C454.26 159.18 453.95 159.35 453.63 159.35C453.19 159.35 452.9 158.98 452.9 158.57C452.9 158.42 452.95 158.33 452.98 158.23L454.71 154.18L449.83 142.96C449.81 142.86 449.75 142.76 449.75 142.62C449.75 142.21 450.09 141.84 450.53 141.84C450.85 141.84 451.16 142.01 451.31 142.38L455.5 152.28L459.72 142.38C459.86 142.01 460.16 141.84 460.5 141.84H460.51Z" fill="#027F8B"/>
<path d="M477.48 149.09C476.7 149.09 476.06 148.46 476.06 147.68C476.06 146.9 476.7 146.29 477.48 146.29C478.26 146.29 478.9 146.92 478.9 147.68C478.9 148.44 478.26 149.09 477.48 149.09Z" fill="#027F8B"/>
<path d="M504.98 137.53C505.37 137.53 505.74 137.87 505.74 138.26C505.74 138.7 505.37 139.02 504.98 139.02H500.54V153.82C500.54 154.28 500.18 154.7 499.71 154.7C499.22 154.7 498.85 154.29 498.85 153.82V139.02H494.39C494 139.02 493.66 138.7 493.66 138.26C493.66 137.87 494 137.53 494.39 137.53H504.98Z" fill="#027F8B"/>
<path d="M514.11 141.77C516.89 141.77 520.21 143.94 520.21 147.96C520.21 148.59 519.82 148.91 519.13 148.91H509.62C509.82 151.91 512.13 153.3 514.35 153.3C515.52 153.3 516.59 152.93 517.42 152.25C517.74 152.01 517.93 151.88 518.15 151.88C518.57 151.88 518.81 152.17 518.81 152.54C518.81 152.76 518.71 152.98 518.35 153.32C517.33 154.25 515.84 154.71 514.3 154.71C511.23 154.71 507.91 152.64 507.91 148.25C507.91 143.86 511.32 141.76 514.11 141.76V141.77ZM514.11 143.23C512.16 143.23 509.84 144.6 509.62 147.57H518.59C518.39 144.59 516.08 143.23 514.1 143.23H514.11Z" fill="#027F8B"/>
<path d="M535.43 151.21C535.82 151.21 536.16 151.48 536.16 151.89C536.16 152.18 535.96 152.38 535.79 152.6C534.72 154.01 533.08 154.72 531.28 154.72C528.43 154.72 524.99 152.57 524.99 148.26C524.99 143.95 528.43 141.77 531.28 141.77C533.08 141.77 534.72 142.48 535.79 143.89C535.96 144.11 536.16 144.3 536.16 144.6C536.16 145.01 535.82 145.28 535.43 145.28C535.14 145.28 534.87 145.11 534.67 144.84C533.91 143.77 532.57 143.23 531.35 143.23C529.13 143.23 526.64 144.86 526.64 148.25C526.64 151.64 529.13 153.25 531.35 153.25C532.57 153.25 533.91 152.71 534.67 151.64C534.86 151.37 535.13 151.2 535.43 151.2V151.21Z" fill="#027F8B"/>
<path d="M548.09 141.79C550.36 141.79 552.9 143.11 552.9 147.13V153.86C552.9 154.3 552.53 154.71 552.07 154.71C551.61 154.71 551.24 154.3 551.24 153.86V147.13C551.24 144.3 549.51 143.28 547.7 143.28C545.11 143.28 543.7 145.4 543.43 147.01V153.86C543.43 154.3 543.07 154.71 542.6 154.71C542.13 154.71 541.77 154.3 541.77 153.86V138.01C541.77 137.57 542.13 137.18 542.6 137.18C543.07 137.18 543.43 137.57 543.43 138.01V144.89C543.58 144.09 545.11 141.79 548.09 141.79Z" fill="#027F8B"/>
<path d="M565.32 141.79C567.59 141.79 570.13 143.11 570.13 147.13V153.86C570.13 154.3 569.76 154.71 569.3 154.71C568.84 154.71 568.47 154.3 568.47 153.86V147.13C568.47 144.3 566.74 143.28 564.93 143.28C562.35 143.28 560.93 145.4 560.66 147.01V153.86C560.66 154.3 560.29 154.71 559.83 154.71C559.37 154.71 559 154.3 559 153.86V142.69C559 142.23 559.36 141.84 559.83 141.84C560.3 141.84 560.66 142.23 560.66 142.69V144.89C560.8 144.09 562.34 141.79 565.32 141.79Z" fill="#027F8B"/>
<path d="M582.03 141.77C584.86 141.77 588.35 143.92 588.35 148.26C588.35 152.6 584.86 154.77 582.03 154.77C579.2 154.77 575.74 152.62 575.74 148.26C575.74 143.9 579.23 141.77 582.03 141.77ZM582.03 143.23C579.91 143.23 577.4 144.86 577.4 148.25C577.4 151.64 579.91 153.3 582.03 153.3C584.15 153.3 586.69 151.67 586.69 148.25C586.69 144.83 584.18 143.23 582.03 143.23Z" fill="#027F8B"/>
<path d="M595.61 153.87C595.61 154.31 595.24 154.72 594.78 154.72C594.32 154.72 593.95 154.31 593.95 153.87V138.02C593.95 137.58 594.31 137.19 594.78 137.19C595.25 137.19 595.61 137.58 595.61 138.02V153.87Z" fill="#027F8B"/>
<path d="M607.52 141.77C610.35 141.77 613.84 143.92 613.84 148.26C613.84 152.6 610.35 154.77 607.52 154.77C604.69 154.77 601.23 152.62 601.23 148.26C601.23 143.9 604.72 141.77 607.52 141.77ZM607.52 143.23C605.4 143.23 602.89 144.86 602.89 148.25C602.89 151.64 605.4 153.3 607.52 153.3C609.64 153.3 612.18 151.67 612.18 148.25C612.18 144.83 609.67 143.23 607.52 143.23Z" fill="#027F8B"/>
<path d="M630.03 141.84C630.52 141.84 630.89 142.23 630.89 142.69V154.35C630.89 158.37 627.45 159.59 624.87 159.59C623.23 159.59 622.02 159.1 621.43 158.76C621.14 158.61 620.94 158.37 620.94 158.05C620.94 157.68 621.26 157.37 621.62 157.37C621.79 157.37 621.96 157.44 622.16 157.52C622.77 157.86 623.8 158.13 624.92 158.13C627.26 158.13 629.24 156.98 629.24 154.35V154.08C629.22 154.01 629.22 153.96 629.22 153.88V151.83C628.51 153.59 626.73 154.76 624.68 154.76C621.95 154.76 618.63 152.64 618.63 148.25C618.63 143.86 621.95 141.76 624.68 141.76C626.56 141.76 628.39 142.69 629.22 144.47V142.69C629.22 142.23 629.61 141.84 630.05 141.84H630.03ZM624.84 153.3C626.91 153.3 629.3 151.69 629.3 148.25C629.3 144.81 626.91 143.23 624.84 143.23C622.77 143.23 620.28 144.84 620.28 148.25C620.28 151.66 622.77 153.3 624.84 153.3Z" fill="#027F8B"/>
<path d="M646.26 141.84C646.68 141.84 647.04 142.21 647.04 142.62C647.04 142.77 646.99 142.86 646.94 142.96L640.16 158.81C640.01 159.18 639.7 159.35 639.38 159.35C638.94 159.35 638.65 158.98 638.65 158.57C638.65 158.42 638.7 158.33 638.73 158.23L640.46 154.18L635.58 142.96C635.56 142.86 635.5 142.76 635.5 142.62C635.5 142.21 635.84 141.84 636.28 141.84C636.6 141.84 636.91 142.01 637.06 142.38L641.25 152.28L645.47 142.38C645.61 142.01 645.91 141.84 646.25 141.84H646.26Z" fill="#027F8B"/>
<path d="M17.9102 45.19C31.9202 32.44 45.7802 19.82 59.6402 7.19998C60.9402 6.01998 62.3102 4.89998 63.5302 3.63998C68.4602 -1.47002 75.6302 -0.660018 80.1602 2.83998C82.6902 4.79998 85.0502 6.98998 87.4202 9.13998C99.1002 19.71 110.79 30.26 122.38 40.92C124.56 42.93 126.29 45.42 128.39 47.89C131.05 45.72 134 43.45 136.79 40.98C139.07 38.96 141.16 36.74 143.3 34.57C145 32.85 146.97 32.63 148.52 34.07C150.01 35.46 149.96 37.61 148.38 39.33C143.21 44.93 137.52 49.94 131.19 54.21C130.31 54.8 129.85 55.35 130.1 56.49C130.29 57.4 130.17 58.37 130.17 59.31C130.13 72.66 130.06 86.01 130.04 99.35C130.04 102.57 130.19 105.79 130.22 109C130.28 116.72 124.86 122.29 117.13 122.37C111.12 122.43 105.11 122.37 99.1102 122.34C98.4502 122.34 97.9302 122.32 97.6602 123.17C94.5502 132.79 89.1502 141.1 82.8002 148.84C80.2502 151.95 77.4902 154.9 74.7402 157.85C72.8802 159.85 71.1002 159.79 69.2402 157.77C60.7802 148.57 53.2102 138.75 48.1202 127.22C47.6002 126.05 47.0902 124.86 46.7302 123.63C46.4602 122.71 45.9802 122.46 45.0802 122.47C39.9002 122.5 34.7202 122.49 29.5402 122.49C25.9602 122.49 22.5402 121.88 19.5602 119.73C15.6102 116.87 14.0802 112.83 14.0902 108.11C14.1202 96.91 14.2002 85.71 14.2302 74.51C14.2502 69.02 14.1802 63.52 14.2302 58.03C14.2502 56.33 14.4302 54.61 14.7502 52.93C14.9302 51.96 14.6302 51.53 13.9502 50.93C9.64023 47.07 5.33023 43.2 1.17023 39.18C-0.979772 37.1 -0.049772 33.91 2.71023 33.22C4.16023 32.86 5.24023 33.51 6.27023 34.49C9.85023 37.88 13.4702 41.23 17.0802 44.58C17.3602 44.84 17.6902 45.03 17.8902 45.18L17.9102 45.19ZM123.16 59.23C107.02 67.97 89.9302 72.13 71.7702 71.57C53.6302 71.02 36.8402 65.83 21.3002 56.14C21.2602 56.79 21.2202 57.17 21.2202 57.56C21.1602 74.6 21.1002 91.63 21.0702 108.67C21.0702 109.47 21.2202 110.3 21.4602 111.06C22.3002 113.79 24.8402 115.48 28.1502 115.49C33.3002 115.52 38.4502 115.49 43.6002 115.49C43.9202 115.49 44.2402 115.42 44.6802 115.37C43.8902 106.95 46.0502 99.53 51.7502 93.34C57.4402 87.15 64.5902 84.13 72.9802 84.39C89.1002 84.88 101.62 99.41 99.4402 115.44C99.8202 115.46 100.2 115.5 100.57 115.5C105.98 115.5 111.38 115.5 116.79 115.5C119.98 115.5 123.28 113.57 123.24 108.97C123.11 93.57 123.16 78.16 123.14 62.75C123.14 61.65 123.14 60.55 123.14 59.23H123.16ZM23.7802 49.35C54.8102 70.29 95.5502 68.38 121.98 51.69C121.03 49.44 119.51 47.61 117.72 45.99C108.58 37.67 99.4502 29.34 90.2902 21.04C85.8102 16.98 81.2802 12.96 76.7402 8.95998C73.7102 6.27998 70.9102 6.33998 67.9902 8.99998C54.7902 21.03 41.5802 33.04 28.3802 45.06C26.8602 46.44 25.3802 47.86 23.7702 49.35H23.7802ZM72.1602 151.61C74.5602 148.74 76.8902 146.11 79.0502 143.35C84.1502 136.84 88.6502 129.97 91.3602 122.08C92.8702 117.7 93.7602 113.2 92.9702 108.56C90.8802 96.46 79.7302 88.84 67.6502 91.19C58.3902 92.99 51.1002 101.71 50.9102 111.12C50.8302 115.14 51.7302 118.94 53.1602 122.64C56.4402 131.14 61.5702 138.52 67.1802 145.6C68.7402 147.57 70.4002 149.47 72.1802 151.61H72.1602Z" fill="#027F8B"/>
<path d="M72.0801 99.24C78.7301 99.25 83.9601 104.52 83.9401 111.18C83.9201 117.81 78.6101 123.11 72.0001 123.1C65.4701 123.09 60.0701 117.65 60.0801 111.1C60.0801 104.52 65.4501 99.22 72.0801 99.24ZM77.5901 111.23C77.6201 108.1 75.2201 105.62 72.1501 105.59C69.0101 105.56 66.4301 108.06 66.4301 111.13C66.4301 114.14 68.9501 116.7 71.9801 116.76C74.9501 116.82 77.5601 114.25 77.5801 111.22L77.5901 111.23Z" fill="#027F8B"/>
</g>
<defs>
<clipPath id="clip0_102_3299">
<rect width="647.04" height="159.6" fill="white"/>
</clipPath>
</defs>
</svg>
