<svg width="16" height="16" viewBox="0 0 16 16" fill="none" xmlns="http://www.w3.org/2000/svg">
<circle cx="8" cy="8" r="8" fill="#D9D9D9"/>
<path fill-rule="evenodd" clip-rule="evenodd" d="M6.78462 2.57657C5.67299 3.58875 4.56135 4.60093 3.43769 5.62353L3.43609 5.62273C3.43103 5.61894 3.42494 5.61483 3.41827 5.61033C3.40376 5.60054 3.3865 5.58889 3.37112 5.57461C3.34004 5.54576 3.30895 5.51692 3.27785 5.48807C3.01928 5.2482 2.76042 5.00805 2.50411 4.76535C2.4215 4.68675 2.33488 4.63461 2.21859 4.66349C1.99722 4.71883 1.92263 4.97468 2.09507 5.1415C2.42872 5.46393 2.7744 5.77432 3.12008 6.0839C3.17462 6.13203 3.19868 6.16652 3.18425 6.24431C3.15858 6.37906 3.14414 6.51701 3.14254 6.65336C3.14025 6.90498 3.1411 7.15686 3.14195 7.40871C3.14259 7.59758 3.14323 7.78642 3.14254 7.97512C3.14134 8.42427 3.13913 8.87341 3.13693 9.32256C3.13472 9.7717 3.13251 10.2208 3.13131 10.67C3.13051 11.0486 3.25322 11.3726 3.57003 11.602C3.80904 11.7744 4.08334 11.8233 4.37047 11.8233C4.45362 11.8233 4.53677 11.8234 4.61992 11.8234C4.95223 11.8235 5.28454 11.8236 5.61684 11.8217C5.68903 11.8209 5.72753 11.841 5.74918 11.9148C5.77805 12.0134 5.81896 12.1089 5.86066 12.2027C6.26891 13.1274 6.87605 13.9151 7.55458 14.6529C7.70376 14.8149 7.84652 14.8198 7.9957 14.6594L8.01362 14.6401C8.22824 14.4099 8.44317 14.1794 8.64215 13.9367C9.15145 13.3159 9.58455 12.6494 9.83399 11.8779C9.85515 11.8112 9.89548 11.8113 9.94672 11.8113L9.95028 11.8113C10.0464 11.8118 10.1425 11.8124 10.2387 11.8129C10.6241 11.8152 11.0098 11.8176 11.3956 11.8137C12.0155 11.8073 12.4503 11.3605 12.4454 10.7414C12.4444 10.6271 12.4414 10.5126 12.4384 10.3981C12.4347 10.2546 12.431 10.111 12.431 9.9674C12.432 9.29889 12.4346 8.63006 12.4371 7.96112C12.4387 7.55945 12.4402 7.15773 12.4414 6.75602C12.4414 6.73501 12.4422 6.71381 12.4429 6.69258C12.4449 6.63764 12.4468 6.58249 12.4358 6.52984C12.4158 6.43841 12.4527 6.3943 12.5232 6.34697C13.0309 6.0045 13.4873 5.60268 13.902 5.15353C14.0287 5.01558 14.0327 4.84314 13.9132 4.73166C13.7889 4.61617 13.6309 4.63381 13.4945 4.77176C13.4595 4.80729 13.4246 4.84298 13.3897 4.87868C13.2538 5.01783 13.1179 5.15693 12.9724 5.28587C12.8129 5.42703 12.647 5.56004 12.4876 5.68781C12.4232 5.73936 12.36 5.79005 12.2987 5.84008C12.2454 5.77742 12.1951 5.7146 12.1457 5.65289C12.0388 5.51949 11.9362 5.39128 11.8166 5.28106C11.0047 4.53428 10.1867 3.79424 9.36838 3.05397C9.24982 2.94671 9.13125 2.83945 9.0127 2.73217C8.99117 2.71264 8.96966 2.69308 8.94814 2.6735C8.77958 2.52019 8.61036 2.36628 8.43041 2.22688C8.06709 1.94616 7.49202 1.8812 7.09661 2.29104C7.02899 2.36088 6.95563 2.42535 6.88234 2.48976C6.84958 2.51855 6.81683 2.54733 6.78462 2.57657ZM11.8776 6.75047C10.5836 7.45086 9.21341 7.78422 7.7575 7.73932C6.30259 7.69521 4.95596 7.27895 3.70958 6.50177C3.70856 6.51845 3.70753 6.53292 3.70661 6.54591C3.70465 6.57349 3.70317 6.59439 3.70317 6.61566L3.70315 6.62026C3.69835 7.98541 3.69354 9.34976 3.69114 10.7149C3.69114 10.7791 3.70317 10.8456 3.72242 10.9066C3.78979 11.1255 3.99351 11.2611 4.25898 11.2619C4.53435 11.2635 4.80972 11.263 5.08509 11.2624C5.22277 11.2622 5.36046 11.2619 5.49814 11.2619C5.51491 11.2619 5.53168 11.2595 5.55113 11.2567C5.56145 11.2552 5.57253 11.2537 5.58476 11.2523C5.5214 10.577 5.69464 9.98184 6.15181 9.48537C6.60817 8.98891 7.18163 8.74669 7.85455 8.76754C9.14744 8.80684 10.1516 9.97221 9.97675 11.2579C9.98703 11.2584 9.99731 11.2592 10.0076 11.2599C10.0277 11.2613 10.0477 11.2627 10.0674 11.2627H11.3683C11.6241 11.2627 11.8888 11.1079 11.8856 10.739C11.8781 9.84966 11.8781 8.95994 11.8781 8.0701C11.8781 7.72405 11.878 7.37799 11.8776 7.03192V6.75047ZM11.7846 6.14486C9.66476 7.48347 6.39723 7.63666 3.90849 5.95718H3.90769C3.95952 5.90921 4.00968 5.86215 4.05903 5.81583C4.13263 5.74676 4.20446 5.67936 4.27743 5.61311C4.697 5.23105 5.11669 4.84911 5.53641 4.46716C6.17577 3.88532 6.81519 3.30342 7.45433 2.72094C7.68852 2.50759 7.91309 2.50278 8.15611 2.71773C8.52024 3.03855 8.88357 3.36097 9.24288 3.6866C9.79388 4.18586 10.3435 4.68649 10.8932 5.18711C11.0764 5.35399 11.2596 5.52087 11.4429 5.6877C11.5865 5.81763 11.7084 5.9644 11.7846 6.14486ZM7.78958 14.1579C7.85161 14.0837 7.91306 14.0116 7.97366 13.9404C8.10082 13.791 8.22422 13.6461 8.34139 13.4964C8.75043 12.9743 9.11135 12.4233 9.3287 11.7904C9.44981 11.4391 9.52119 11.0782 9.45783 10.7061C9.2902 9.73561 8.39592 9.12445 7.42706 9.31293C6.68436 9.4573 6.09967 10.1567 6.08444 10.9114C6.07802 11.2338 6.1502 11.5386 6.2649 11.8354C6.52797 12.5171 6.93941 13.109 7.38936 13.6769C7.47166 13.7808 7.55742 13.8823 7.64712 13.9884C7.69353 14.0433 7.741 14.0995 7.78958 14.1579ZM8.73339 10.9162C8.73499 10.382 8.31552 9.95936 7.78216 9.95856C7.25041 9.95696 6.81971 10.382 6.81971 10.9098C6.81891 11.4351 7.25201 11.8714 7.77575 11.8722C8.3059 11.873 8.73178 11.448 8.73339 10.9162ZM7.78778 10.4679C8.03401 10.4703 8.22649 10.6692 8.22409 10.9202L8.22329 10.9194C8.22168 11.1624 8.01235 11.3686 7.77414 11.3637C7.53112 11.3589 7.32901 11.1536 7.32901 10.9122C7.32901 10.666 7.53594 10.4655 7.78778 10.4679Z" fill="#027F8B"/>
</svg>
