<svg width="60" height="64" viewBox="0 0 60 64" fill="none" xmlns="http://www.w3.org/2000/svg">
<path fill-rule="evenodd" clip-rule="evenodd" d="M23.9231 2.88285C18.3649 7.94374 12.8068 13.0046 7.18846 18.1177L7.18044 18.1137C7.15517 18.0947 7.12472 18.0741 7.09135 18.0516C7.01883 18.0027 6.93252 17.9444 6.85561 17.873C6.70007 17.7287 6.54449 17.5844 6.38889 17.44C5.09617 16.2408 3.80198 15.0401 2.52057 13.8267C2.10752 13.4337 1.67441 13.1731 1.09293 13.3174C-0.0138895 13.5941 -0.38684 14.8734 0.475357 15.7075C2.14361 17.3196 3.87201 18.8716 5.60041 20.4195C5.87311 20.6601 5.99342 20.8326 5.92123 21.2216C5.7929 21.8953 5.72072 22.585 5.7127 23.2668C5.70124 24.5249 5.7055 25.7843 5.70975 27.0436C5.71295 27.9879 5.71614 28.9321 5.7127 29.8756C5.70669 32.1213 5.69566 34.3671 5.68463 36.6128C5.6736 38.8585 5.66257 41.1042 5.65656 43.3499C5.65255 45.2428 6.26611 46.8629 7.85015 48.0098C9.04519 48.872 10.4167 49.1166 11.8523 49.1166C12.2678 49.1166 12.6833 49.1168 13.0987 49.117C14.7606 49.1176 16.4224 49.1182 18.0842 49.1086C18.4451 49.1046 18.6376 49.2049 18.7459 49.5738C18.8903 50.0671 19.0948 50.5443 19.3033 51.0135C21.3445 55.6373 24.3803 59.5753 27.7729 63.2647C28.5188 64.0748 29.2326 64.0988 29.9785 63.2968L30.0681 63.2007C31.1412 62.0496 32.2159 60.897 33.2108 59.6836C35.7572 56.5797 37.9228 53.2472 39.1699 49.3893C39.2758 49.0562 39.4774 49.0563 39.7336 49.0565L39.7514 49.0565C40.2321 49.0589 40.7129 49.0618 41.1939 49.0647C43.1205 49.0762 45.0492 49.0878 46.9778 49.0685C50.0777 49.0364 52.2513 46.8027 52.2272 43.7069C52.2219 43.1354 52.207 42.5632 52.1922 41.9905C52.1736 41.2731 52.155 40.5551 52.155 39.837C52.16 36.4946 52.1729 33.1506 52.1857 29.8061C52.1934 27.7976 52.2011 25.7888 52.2072 23.7801C52.2072 23.675 52.2109 23.5691 52.2146 23.4629C52.2243 23.1882 52.2341 22.9124 52.1791 22.6492C52.0788 22.192 52.2633 21.9715 52.6162 21.7349C55.1547 20.0225 57.4365 18.0134 59.5098 15.7677C60.1434 15.0779 60.1634 14.2157 59.5659 13.6583C58.9443 13.0808 58.1543 13.1691 57.4726 13.8588C57.2974 14.0364 57.1231 14.2149 56.9488 14.3933C56.2691 15.0891 55.5896 15.7846 54.8619 16.4294C54.0647 17.1351 53.235 17.8002 52.4379 18.439C52.1163 18.6968 51.8 18.9502 51.4933 19.2004C51.227 18.8871 50.9754 18.573 50.7283 18.2644C50.1942 17.5975 49.6809 16.9564 49.0832 16.4053C45.0234 12.6713 40.933 8.97093 36.8415 5.26948C36.2488 4.73332 35.6561 4.19714 35.0635 3.66083C34.9559 3.56322 34.8483 3.46541 34.7407 3.36755C33.8979 2.60097 33.0518 1.83141 32.1521 1.13439C30.3354 -0.269185 27.4601 -0.594013 25.4831 1.45521C25.145 1.80439 24.7781 2.12676 24.4117 2.44879C24.2479 2.59276 24.0842 2.73665 23.9231 2.88285ZM49.388 23.7523C42.9178 27.2543 36.067 28.9211 28.7875 28.6966C21.513 28.4761 14.7798 26.3947 8.54792 22.5088C8.54279 22.5923 8.53766 22.6646 8.53305 22.7295C8.52326 22.8675 8.51584 22.972 8.51584 23.0783L8.51576 23.1023C8.49172 29.9277 8.46771 36.7491 8.45569 43.5745C8.45569 43.8953 8.51584 44.2282 8.61209 44.533C8.94894 45.6277 9.96754 46.3055 11.2949 46.3095C12.6718 46.3175 14.0486 46.3148 15.4254 46.3122C16.1139 46.3108 16.8023 46.3095 17.4907 46.3095C17.5745 46.3095 17.6584 46.2975 17.7556 46.2836C17.8072 46.2762 17.8626 46.2683 17.9238 46.2614C17.607 42.8848 18.4732 39.9092 20.759 37.4269C23.0408 34.9445 25.9082 33.7334 29.2727 33.8377C35.7372 34.0342 40.758 39.8611 39.8838 46.2894C39.9352 46.2921 39.9866 46.2958 40.0378 46.2994C40.1385 46.3065 40.2386 46.3135 40.3369 46.3135H46.8415C48.1207 46.3135 49.4441 45.5395 49.4281 43.6948C49.3905 39.2484 49.3904 34.7999 49.3903 30.3508C49.3903 28.6205 49.3902 26.89 49.388 25.1596V23.7523ZM48.9228 20.7243C38.3238 27.4174 21.9862 28.1833 9.54246 19.7859H9.53845C9.7976 19.5461 10.0484 19.3108 10.2951 19.0792C10.6631 18.7338 11.0223 18.3968 11.3872 18.0655C13.4846 16.1556 15.5826 14.2464 17.6807 12.337C20.878 9.42736 24.0755 6.51749 27.2716 3.60468C28.4426 2.53797 29.5655 2.51391 30.7806 3.58864C32.6012 5.19273 34.4178 6.80484 36.2144 8.43299C38.9691 10.929 41.7169 13.4318 44.4648 15.9346C45.3813 16.7693 46.2977 17.604 47.2144 18.4385C47.9323 19.0881 48.5418 19.822 48.9228 20.7243ZM28.9479 60.7896C29.2581 60.4187 29.5653 60.0579 29.8683 59.702C30.5041 58.9552 31.1211 58.2305 31.7069 57.482C33.7521 54.8713 35.5567 52.1163 36.6435 48.9522C37.249 47.1957 37.606 45.3911 37.2892 43.5304C36.451 38.678 31.9796 35.6223 27.1353 36.5647C23.4218 37.2865 20.4984 40.7834 20.4222 44.557C20.3901 46.1691 20.751 47.693 21.3245 49.1768C22.6398 52.5855 24.6971 55.545 26.9468 58.3843C27.3583 58.9039 27.7871 59.4114 28.2356 59.9421C28.4677 60.2168 28.705 60.4976 28.9479 60.7896ZM33.6675 44.5808C33.6755 41.91 31.5781 39.7966 28.9113 39.7926C26.2526 39.7845 24.0991 41.91 24.0991 44.5487C24.0951 47.1754 26.2606 49.3569 28.8793 49.3609C31.53 49.365 33.6594 47.2395 33.6675 44.5808ZM28.9394 42.339C30.1706 42.3511 31.133 43.3456 31.121 44.6008L31.117 44.5968C31.1089 45.8119 30.0623 46.8425 28.8712 46.8185C27.6561 46.7944 26.6456 45.7678 26.6456 44.5607C26.6456 43.3296 27.6802 42.327 28.9394 42.339Z" fill="#027F8B"/>
</svg>
